<svg xmlns="http://www.w3.org/2000/svg" viewBox="0 0 425.2 229.68"><defs><style>.cls-1,.cls-2{fill:#fff;}.cls-2{fill-rule:evenodd;}</style></defs><title>logo-white</title><g id="Layer_2" data-name="Layer 2"><g id="Layer_1-2" data-name="Layer 1"><path class="cls-1" d="M419.08,214.5l0-16.65A4,4,0,0,0,415,193.8h-4.22a3.85,3.85,0,0,0-3.29,1.68l-13.65,18.94a3.92,3.92,0,0,0-.73,2.32v.06a3.82,3.82,0,0,0,1.17,2.81,3.76,3.76,0,0,0,2.8,1.17h13.51v4.55a4.19,4.19,0,0,0,4.2,4.2h.07a4.19,4.19,0,0,0,4.2-4.18l0-4.58h3a3.09,3.09,0,0,0,2.91-4.17l0-.06a2.83,2.83,0,0,0-2.91-2Zm-8.51,0h-8.14v-.21l8.14-13V214.5Zm-22.24-1.66a18.26,18.26,0,0,0,3.11-4.61,11.57,11.57,0,0,0,1-4.69,9.19,9.19,0,0,0-3.49-7.3q-3.46-2.89-9.45-2.88a15.08,15.08,0,0,0-8.83,2.7,2.86,2.86,0,0,0-1.28,2.29,2.76,2.76,0,0,0,1,2.4l.06.06a2.85,2.85,0,0,0,1.93.68,3,3,0,0,0,1.93-.73,6.53,6.53,0,0,1,7.71-.44,4.93,4.93,0,0,1,.76.51,3.53,3.53,0,0,1,1,1.51,4.18,4.18,0,0,1,.41,1.53,4.56,4.56,0,0,1-1.2,3.46c-.15.23-.28.45-.41.62q-.63.8-13.77,16.9a2.88,2.88,0,0,0,2.24,4.69h17.9a3.45,3.45,0,0,0,3.49-3.49V226a3.43,3.43,0,0,0-3.49-3.49h-9q1.1-1.4,8.37-9.65ZM363,227a3,3,0,0,0-.63-2.7,2.91,2.91,0,0,0-2.47-1.2h-9a7.4,7.4,0,0,1-4.31-1.34,7.07,7.07,0,0,1-2.7-3.4h19.32a2.64,2.64,0,0,0,1.88-.74,2.44,2.44,0,0,0,.79-1.82v0a13.07,13.07,0,0,0-4.17-9.76,13.81,13.81,0,0,0-10-4l-.82,0-.82,0a13.9,13.9,0,0,0-10,4,13.54,13.54,0,0,0,0,19.49,13.91,13.91,0,0,0,10,4l.82,0,.82,0,8.2,0a3.26,3.26,0,0,0,2-.72,3.08,3.08,0,0,0,1.09-1.74l0-.06Zm-12.1-18.58a7.4,7.4,0,0,1,4.22,1.28,7.22,7.22,0,0,1,2.7,3.29H343.91a7.54,7.54,0,0,1,6.95-4.58ZM317.67,202a12.32,12.32,0,0,0-9.26,4,14.28,14.28,0,0,0,0,19.49A12.54,12.54,0,0,0,324,227.78v0a1.73,1.73,0,0,0,1.75,1.72h5.13a1.72,1.72,0,0,0,1.22-.49,1.68,1.68,0,0,0,.52-1.26V194.72a4.29,4.29,0,0,0-4.25-4.25h-.11a4.29,4.29,0,0,0-4.25,4.25v9a12.32,12.32,0,0,0-6.34-1.74Zm-4.94,13.24a8.75,8.75,0,0,1,.74-3.65,4.52,4.52,0,0,1,2.09-2.34A6.48,6.48,0,0,1,321,209a4.75,4.75,0,0,1,3,2.61v6.81c-.06,2.27-1,3.72-2.86,4.33a5.8,5.8,0,0,1-2.78.24,4.94,4.94,0,0,1-4-2.15,8.53,8.53,0,0,1-1.64-5.26v-.33Zm-11.74.6q0-6.38-3.19-10.38-3.66-4.58-9.89-3.3-1.23.25-6.38,3.27v0a2.58,2.58,0,0,0-.79-1.91,2.54,2.54,0,0,0-1.91-.82h-3.13a2.75,2.75,0,0,0-2.75,2.75v20.11a4.19,4.19,0,0,0,4.18,4.17h.13a4.18,4.18,0,0,0,4.17-4.17V213.94l0,0a5.24,5.24,0,0,1,.08-.66c.24-1.23,1.2-2.36,2.89-3.4a5.53,5.53,0,0,1,5.58-.47q2.57,1.26,2.57,5.86v10.28a4.19,4.19,0,0,0,4.17,4.17h.08a4.19,4.19,0,0,0,4.19-4.17l0-9.7Zm-60.11-.06a13.61,13.61,0,0,0,3.84,9.73,12.33,12.33,0,0,0,9.26,4c1,0,2.52-.63,4.45-1.89a2.22,2.22,0,0,1,1.55-.35,2.36,2.36,0,0,1,1.41.73q1.4,1.51,2.2,1.51h3.6a1.68,1.68,0,0,0,1.23-.52,1.62,1.62,0,0,0,.52-1.23V206a3.22,3.22,0,0,0-3.22-3.19H263.5a3.16,3.16,0,0,0-3.16,3.16v0a6.38,6.38,0,0,0-6.35-4,12.32,12.32,0,0,0-9.26,4,13.65,13.65,0,0,0-3.84,9.76Zm8.18-.55a8.75,8.75,0,0,1,.73-3.65,4.58,4.58,0,0,1,2.1-2.34,6.47,6.47,0,0,1,5.45-.27,4.78,4.78,0,0,1,3,2.61v6.81c-.06,2.25-1,3.7-2.86,4.33a5.79,5.79,0,0,1-2.78.24,4.92,4.92,0,0,1-4-2.15,8.53,8.53,0,0,1-1.64-5.26v-.33ZM224.81,202a12.4,12.4,0,0,0-6.38,1.74v-9a4.11,4.11,0,0,0-1.25-3,4,4,0,0,0-3-1.26h-.07a4.27,4.27,0,0,0-4.25,4.25v33.06a1.7,1.7,0,0,0,.51,1.26,1.67,1.67,0,0,0,1.23.49h5.13a1.67,1.67,0,0,0,1.71-1.72v0a12.6,12.6,0,0,0,15.64-2.29,14.28,14.28,0,0,0,0-19.49,12.32,12.32,0,0,0-9.26-4Zm4.93,13.57a8.37,8.37,0,0,1-1.66,5.26,4.9,4.9,0,0,1-4,2.15,5.8,5.8,0,0,1-2.78-.24c-1.87-.61-2.84-2.06-2.89-4.33v-6.81a4.88,4.88,0,0,1,3-2.61,6.48,6.48,0,0,1,5.45.27,4.45,4.45,0,0,1,2.06,2.34,8.48,8.48,0,0,1,.76,3.65v.33Zm-23.46.27q0-6.38-3.19-10.38-3.66-4.58-9.89-3.3-1.23.25-6.38,3.27v0a2.58,2.58,0,0,0-.79-1.91,2.53,2.53,0,0,0-1.91-.82H181a2.75,2.75,0,0,0-2.75,2.75v20.11a4.19,4.19,0,0,0,4.18,4.17h.13a4.18,4.18,0,0,0,4.17-4.17V213.94l0,0a5.3,5.3,0,0,1,.08-.66c.24-1.23,1.2-2.36,2.89-3.4a5.53,5.53,0,0,1,5.58-.47q2.57,1.26,2.57,5.86v10.28a4.19,4.19,0,0,0,4.17,4.17h.08a4.19,4.19,0,0,0,4.19-4.17l0-9.7Zm-35,11.17a3,3,0,0,0-.63-2.7,2.91,2.91,0,0,0-2.47-1.2h-9a7.4,7.4,0,0,1-4.31-1.34,7.06,7.06,0,0,1-2.7-3.4h19.32a2.64,2.64,0,0,0,1.88-.74,2.44,2.44,0,0,0,.79-1.82v0A13.07,13.07,0,0,0,170,206a13.81,13.81,0,0,0-10-4l-.82,0-.82,0a13.9,13.9,0,0,0-10,4,13.54,13.54,0,0,0,0,19.49,13.91,13.91,0,0,0,10,4l.82,0,.82,0,8.2,0a3.26,3.26,0,0,0,2-.72,3.08,3.08,0,0,0,1.09-1.74l0-.06Zm-12.1-18.58a7.41,7.41,0,0,1,4.22,1.28,7.22,7.22,0,0,1,2.7,3.29H152.24a7.54,7.54,0,0,1,6.95-4.58Zm-17.82-12.84a4.59,4.59,0,0,1-4.6,4.6,4.56,4.56,0,0,1-4.6-4.6,4.41,4.41,0,0,1,1.34-3.25,4.52,4.52,0,0,1,3.26-1.33,4.44,4.44,0,0,1,3.25,1.33,4.36,4.36,0,0,1,1.36,3.25Zm-4.52,34a4.3,4.3,0,0,1-3.16-1.31,4.25,4.25,0,0,1-1.27-3.13v-18a4.41,4.41,0,0,1,4.44-4.44h.08a4.46,4.46,0,0,1,4.44,4.44v18a4.46,4.46,0,0,1-4.44,4.45Zm-8.42-4.45a4.27,4.27,0,0,1-1.31,3.13,4.21,4.21,0,0,1-3.13,1.31h-.08a4.19,4.19,0,0,1-3.12-1.31,4.27,4.27,0,0,1-1.31-3.13V196.91a4.3,4.3,0,0,1,1.31-3.16,4.24,4.24,0,0,1,3.12-1.28H124a4.26,4.26,0,0,1,3.13,1.28,4.3,4.3,0,0,1,1.31,3.16v28.17ZM115.6,195.57a4.59,4.59,0,0,1-4.6,4.6,4.56,4.56,0,0,1-4.6-4.6,4.42,4.42,0,0,1,1.34-3.25A4.52,4.52,0,0,1,111,191a4.44,4.44,0,0,1,3.25,1.33,4.36,4.36,0,0,1,1.36,3.25Zm-4.52,34a4.3,4.3,0,0,1-3.16-1.31,4.25,4.25,0,0,1-1.27-3.13v-18a4.41,4.41,0,0,1,4.44-4.44h.08a4.46,4.46,0,0,1,4.44,4.44v18a4.46,4.46,0,0,1-4.44,4.45Zm-8-13.88q0-6.4-3.22-10.38-3.64-4.6-9.89-3.29-2.19.46-6.41,4.58h-.19Q79.68,200.5,72.58,202a6.34,6.34,0,0,0-2.95,1.53q-.29.24-1,1a5.71,5.71,0,0,1-.87.76v0a2.75,2.75,0,0,0-2.7-2.73H61.86a2.75,2.75,0,0,0-2.73,2.73V225.6a3.92,3.92,0,0,0,3.93,3.92h.6a4,4,0,0,0,4-3.92v-12a4.88,4.88,0,0,1,1.31-3.38,4.42,4.42,0,0,1,3.25-1.53A4.7,4.7,0,0,1,77,213.44V225.6a4,4,0,0,0,4,3.92h.79a3.92,3.92,0,0,0,3.93-3.92v-12a4.91,4.91,0,0,1,1.3-3.38,4.42,4.42,0,0,1,3.25-1.53,4.75,4.75,0,0,1,4.87,4.72V225.6A3.92,3.92,0,0,0,99,229.52h.08A3.92,3.92,0,0,0,103,225.6v-10Zm-76,.11a13.61,13.61,0,0,0,3.84,9.73,12.33,12.33,0,0,0,9.26,4c1,0,2.52-.63,4.45-1.89a2.22,2.22,0,0,1,1.55-.35,2.36,2.36,0,0,1,1.41.73q1.4,1.51,2.2,1.51h3.6a1.68,1.68,0,0,0,1.23-.52,1.62,1.62,0,0,0,.52-1.23V206a3.22,3.22,0,0,0-3.22-3.19H49.63A3.16,3.16,0,0,0,46.47,206v0a6.38,6.38,0,0,0-6.35-4,12.32,12.32,0,0,0-9.26,4A13.65,13.65,0,0,0,27,215.76Zm8.18-.55a8.75,8.75,0,0,1,.73-3.65,4.58,4.58,0,0,1,2.1-2.34,6.47,6.47,0,0,1,5.45-.27,4.78,4.78,0,0,1,3,2.61v6.81c-.06,2.25-1,3.7-2.86,4.33a5.79,5.79,0,0,1-2.78.24,4.92,4.92,0,0,1-4-2.15,8.53,8.53,0,0,1-1.64-5.26v-.33ZM9,211.56H20.6A3.4,3.4,0,0,0,24,208.19v-.06a3.28,3.28,0,0,0-1-2.4,3.24,3.24,0,0,0-2.37-1H9v-5.39H20.49a3.25,3.25,0,0,0,2.13-.76,3.2,3.2,0,0,0,1.17-1.88l0-.14a3.4,3.4,0,0,0-3.3-4.11h-15a5.36,5.36,0,0,0-3.92,1.64A5.39,5.39,0,0,0,0,198v27a4.3,4.3,0,0,0,1.31,3.16,4.26,4.26,0,0,0,3.13,1.28h.07a4.24,4.24,0,0,0,3.13-1.28A4.31,4.31,0,0,0,9,225.08V211.56Z"/><path class="cls-2" d="M116.35,160.47a86.23,86.23,0,0,1-6.65-62.55q.54-2,1.17-3.93a65.73,65.73,0,0,0,10.44,5.69,78.51,78.51,0,0,0,1.4,40.59c.13,3.1.3,6.21.53,9.3.22,2.9.49,6.5,1,9.86q-4,.48-7.93,1ZM216,37.18a86.49,86.49,0,0,1,60.32,59.21l-1.72.62A79,79,0,0,0,139.05,65.09,13.51,13.51,0,0,0,127.5,82.31l-.32.65q-5.06-1.65-9.94-3.78a86.58,86.58,0,0,1,98.71-42Z"/><path class="cls-2" d="M168.39,155.79a73.4,73.4,0,0,1-12.7-19.87q.06-1.58.12-3.16a67,67,0,0,0,14.92,22.92l-2.34.11ZM151.74,89.1a73.65,73.65,0,0,1,137-16.1,13.06,13.06,0,0,0-9.65,6.63A67.2,67.2,0,0,0,153.81,89.72l-2.06-.62Z"/><path class="cls-2" d="M122.32,123a92,92,0,0,1-5.41-25.44q2.7,1.41,5.56,2.6c-.17,7.6-.22,15.23-.15,22.84Zm-4.81-43.74a91.48,91.48,0,0,1,180.71-3.92,13,13,0,0,0-7.67-2.5q-.48,0-1,0a83.47,83.47,0,0,0-157.74-4.8A13.51,13.51,0,0,0,127.73,83l0,.09a107.27,107.27,0,0,1-10.21-3.84Z"/><path class="cls-2" d="M146,64.75A92.17,92.17,0,0,1,312.44,85c-2.61,1.08-5.17,2.16-7.76,3.18A84.07,84.07,0,0,0,151,62.8c-1,1.56-1.85,3.14-2.7,4.74a13.46,13.46,0,0,0-3-1.62c.23-.39.46-.79.7-1.18Zm169.83,35.33a91.87,91.87,0,0,1-3.39,40.73,138.35,138.35,0,0,1-5.94-27.54q.31-4,.23-8.07a55.66,55.66,0,0,0,9.1-5.12Z"/><path class="cls-2" d="M176.89,155.41a55.68,55.68,0,0,1-17.32-39c0-1.81,0-3.6.12-5.36l2.53.48.13,0a51,51,0,0,0,15.94,43.78l-1.4.05ZM163.76,93.67a55.88,55.88,0,0,1,105.32,5.71,58.51,58.51,0,0,0-7.24,4.29,51,51,0,0,0-94.66-8.18q-1.7-1-3.41-1.82Zm107.52,21.85a55.72,55.72,0,0,1-17.58,40.13l-3.91-.17c.08-.86.15-1.72.21-2.55A50.79,50.79,0,0,0,263.87,118a30.68,30.68,0,0,1,7.4-2.53Z"/><path class="cls-2" d="M140.45,69.63a8.89,8.89,0,1,0,8.89,8.89,8.89,8.89,0,0,0-8.89-8.89Zm72.15,89.7q10.39,0,20.39.22c-1.61-6.38-1.48-24.79-1.24-33.48-4.91,1.13-6.79,2.23-13,7.11-.61.47-.94.52-1.77-.13-6.9-5.41-8.29-8-13.69-10,1.17,7.93,2.88,16,6.31,23.34a49.15,49.15,0,0,1-6.48,1.37,65.25,65.25,0,0,1-1.27,11.57q5.34-.06,10.79-.06Zm23.21.29,6,.17c-1.57-5-1.88-17.48-3-17.48s-1.43,12.23-3,17.31Zm8.59.26c10.93.38,21.37,1,31.15,1.71q4.81.37,9.41.79a92.86,92.86,0,0,1-1.6-12.72,64.82,64.82,0,0,1-9.48-2.14c3.65-9.38,8.3-29.1,8.23-39.17C276.46,110.21,265.72,111,260,115c-4.81,3.43-8.52,6-14.25,8.14.25,8.93.38,30.24-1.38,36.72Zm44.84,2.91q2.87.29,5.63.59c-.81-3.06-1.19-8.05-1.46-13.08q-1.46,0-2.93,0a71.35,71.35,0,0,1-1.24,12.5Zm9.39,1c10,1.19,19,2.58,26.51,4.13a.48.48,0,0,1-.13.95c-16.22-1.21-34.21-2.17-53.46-2.82-18.57-.63-38.38-1-58.95-1s-40.37.34-58.95,1c-19.25.65-37.24,1.61-53.46,2.82a.48.48,0,0,1-.1-1c8.39-1.72,18.47-3.24,29.87-4.51-3.48-9.84-3.25-50-2.8-66.32-9-3.39-17.53-8.19-24.16-16.53-1.6-2-3.77-5.77,1.75-2.57A114.05,114.05,0,0,0,140.5,91.16c19.52,3.88,26,8.79,34.63,15.52,1.94,1.52,4.2,2.14,7,3.28,6.4,2.59,9.64,4,12.69,4.12,7.65.36,15.74,5.46,22.6,16.38.2.33.38.63.53.9l.31-.51c6.18-9.83,16.88-11.81,21-12,2.71-.13,5.6-.58,11.23-2.86a43.14,43.14,0,0,0,8.12-4.2c7.24-5.53,13.44-10.75,32.2-14.48C302.21,95,310.07,90.77,320,87c5.41-2.07,5.93-1.82,1.59,2.33-7,6.68-12.36,10.15-20.49,13.22.39,14.07,3.68,32,8.9,45a56.23,56.23,0,0,1-9.52,2.21c-.42,6.12-1,11.19-1.89,14.08ZM133.91,163q4.82-.5,9.92-.93c-2.75-8.51-2.54-30.75-4.3-30.75-2.06,0-2.57,23.66-5.62,31.68Zm14.68-1.32,1.06-.08c12.23-.93,25.5-1.61,39.47-2a67.31,67.31,0,0,1-1.33-11.88,57.33,57.33,0,0,1-6.33-1.3c3.67-8.18,4.84-15.42,6.06-23.8,0-1.4.05-2.67.08-3.78-4.32-1.64-9.41-5.65-14-8.5-5.27-3.3-17-3.88-21.93-6.09-.13,19.53-.6,47.49-3.12,57.4Zm43.46-2.12,6.65-.12a73.21,73.21,0,0,1-1.76-11.11q-1.54,0-3.09,0c-.45,4-1,8.61-1.8,11.26Zm2.76-58.3a5.6,5.6,0,1,1-5.61,5.6,5.6,5.6,0,0,1,5.61-5.6Zm44.49,6.06a5,5,0,1,0,5,5,5,5,0,0,0-5-5Zm51.25-29.83a8.44,8.44,0,1,1-8.44,8.44,8.44,8.44,0,0,1,8.44-8.44Z"/></g></g></svg>