<svg xmlns="http://www.w3.org/2000/svg" viewBox="0 0 708.66 117.64"><defs><style>.cls-1,.cls-2{fill:#fff;}.cls-2{fill-rule:evenodd;}</style></defs><title>logo-large-white</title><g id="Layer_2" data-name="Layer 2"><g id="Layer_1-2" data-name="Layer 1"><path class="cls-1" d="M701.05,87l0-20.72a5,5,0,0,0-5.06-5H690.7a4.8,4.8,0,0,0-4.1,2.1l-17,23.57a4.88,4.88,0,0,0-.91,2.88v.07a4.76,4.76,0,0,0,1.46,3.5,4.68,4.68,0,0,0,3.48,1.46h16.82v5.66a5.22,5.22,0,0,0,5.23,5.23h.09a5.22,5.22,0,0,0,5.23-5.2l0-5.7h3.73a3.85,3.85,0,0,0,3.62-5.19l0-.07A3.53,3.53,0,0,0,704.74,87Zm-10.59,0H680.33v-.27l10.13-16.22V87ZM662.78,85a22.73,22.73,0,0,0,3.87-5.74,14.4,14.4,0,0,0,1.22-5.84,11.44,11.44,0,0,0-4.34-9.09q-4.31-3.59-11.76-3.59a18.76,18.76,0,0,0-11,3.36,3.56,3.56,0,0,0-1.6,2.85,3.44,3.44,0,0,0,1.29,3l.07.07a3.55,3.55,0,0,0,2.41.84,3.77,3.77,0,0,0,2.41-.91,8.13,8.13,0,0,1,9.6-.54,6.16,6.16,0,0,1,.95.64,4.39,4.39,0,0,1,1.19,1.88,5.2,5.2,0,0,1,.51,1.9,5.68,5.68,0,0,1-1.49,4.31c-.19.29-.35.56-.51.78q-.78,1-17.13,21a3.59,3.59,0,0,0,2.79,5.83h22.27a4.29,4.29,0,0,0,4.34-4.34v-.07A4.27,4.27,0,0,0,663.52,97H652.36q1.37-1.74,10.42-12Zm-31.58,17.6a3.7,3.7,0,0,0-.79-3.36,3.62,3.62,0,0,0-3.08-1.49h-11.2a9.21,9.21,0,0,1-5.36-1.67,8.79,8.79,0,0,1-3.36-4.24h24a3.29,3.29,0,0,0,2.34-.92,3,3,0,0,0,1-2.27v0a16.27,16.27,0,0,0-5.19-12.14,17.19,17.19,0,0,0-12.45-5l-1,0-1,0a17.31,17.31,0,0,0-12.48,5,16.85,16.85,0,0,0,0,24.25,17.31,17.31,0,0,0,12.48,5c.34,0,.68,0,1,0s.68,0,1,0q5.23,0,10.21,0a4.06,4.06,0,0,0,2.44-.89,3.83,3.83,0,0,0,1.35-2.16l0-.07ZM616.14,79.44a9.22,9.22,0,0,1,5.26,1.6,9,9,0,0,1,3.36,4.1H607.49a9.39,9.39,0,0,1,8.65-5.7Zm-41.31-8a15.33,15.33,0,0,0-11.53,5,17.77,17.77,0,0,0,0,24.25,15.61,15.61,0,0,0,19.43,2.85v0a2.15,2.15,0,0,0,2.18,2.14h6.38a2.14,2.14,0,0,0,1.52-.61,2.09,2.09,0,0,0,.65-1.56V62.41a5.34,5.34,0,0,0-5.29-5.29H588a5.34,5.34,0,0,0-5.29,5.29V73.6a15.33,15.33,0,0,0-7.9-2.16Zm-6.15,16.47a10.89,10.89,0,0,1,.93-4.54,5.63,5.63,0,0,1,2.61-2.92,8.06,8.06,0,0,1,6.78-.34,5.91,5.91,0,0,1,3.73,3.25v8.47c-.07,2.83-1.25,4.63-3.55,5.4a7.22,7.22,0,0,1-3.46.3,6.14,6.14,0,0,1-5-2.67,10.61,10.61,0,0,1-2-6.54v-.42Zm-14.61.75q0-7.94-4-12.92-4.55-5.7-12.31-4.11-1.53.31-7.94,4.08v0a3.21,3.21,0,0,0-1-2.37,3.16,3.16,0,0,0-2.37-1h-3.9a3.42,3.42,0,0,0-3.43,3.43v25a5.22,5.22,0,0,0,5.2,5.19h.16a5.2,5.2,0,0,0,5.19-5.19V86.33l0,0a6.61,6.61,0,0,1,.1-.82c.3-1.53,1.49-2.94,3.6-4.24a6.88,6.88,0,0,1,6.95-.58q3.19,1.56,3.2,7.29v12.79a5.22,5.22,0,0,0,5.19,5.19h.1a5.22,5.22,0,0,0,5.22-5.19l0-12.07Zm-74.82-.07A16.94,16.94,0,0,0,484,100.7a15.34,15.34,0,0,0,11.53,5c1.29,0,3.14-.79,5.53-2.35a2.76,2.76,0,0,1,1.93-.44,2.93,2.93,0,0,1,1.76.91q1.74,1.88,2.74,1.88H512a2.09,2.09,0,0,0,1.53-.65,2,2,0,0,0,.65-1.53V76.45a4,4,0,0,0-4-4H507.4a3.93,3.93,0,0,0-3.94,3.94v0a7.94,7.94,0,0,0-7.91-5,15.33,15.33,0,0,0-11.53,5,17,17,0,0,0-4.78,12.14Zm10.18-.68a10.89,10.89,0,0,1,.91-4.54A5.7,5.7,0,0,1,493,80.46a8.06,8.06,0,0,1,6.78-.34,6,6,0,0,1,3.73,3.25v8.47c-.07,2.8-1.26,4.61-3.57,5.4a7.21,7.21,0,0,1-3.46.3,6.12,6.12,0,0,1-5-2.67,10.61,10.61,0,0,1-2-6.54v-.42ZM459.24,71.44a15.44,15.44,0,0,0-7.94,2.16V62.41a5.12,5.12,0,0,0-1.55-3.73A5,5,0,0,0,446,57.12h-.09a5.32,5.32,0,0,0-5.29,5.29v41.14a2.12,2.12,0,0,0,.64,1.56,2.08,2.08,0,0,0,1.53.61h6.38a2.08,2.08,0,0,0,2.13-2.14v0a15.68,15.68,0,0,0,19.47-2.85,17.77,17.77,0,0,0,0-24.25,15.33,15.33,0,0,0-11.53-5Zm6.14,16.89a10.42,10.42,0,0,1-2.07,6.54,6.09,6.09,0,0,1-4.94,2.67,7.22,7.22,0,0,1-3.46-.3c-2.33-.76-3.53-2.57-3.6-5.4V83.37a6.07,6.07,0,0,1,3.77-3.25,8.06,8.06,0,0,1,6.78.34,5.53,5.53,0,0,1,2.57,2.92,10.55,10.55,0,0,1,.95,4.54v.42Zm-29.2.34q0-7.94-4-12.92-4.55-5.7-12.31-4.11-1.53.31-7.94,4.08v0a3.21,3.21,0,0,0-1-2.37,3.16,3.16,0,0,0-2.37-1h-3.9a3.42,3.42,0,0,0-3.43,3.43v25a5.22,5.22,0,0,0,5.2,5.19h.16a5.2,5.2,0,0,0,5.19-5.19V86.33l0,0a6.56,6.56,0,0,1,.1-.82c.3-1.53,1.49-2.94,3.6-4.24a6.88,6.88,0,0,1,6.95-.58q3.2,1.56,3.2,7.29v12.79a5.22,5.22,0,0,0,5.19,5.19h.1a5.22,5.22,0,0,0,5.22-5.19l0-12.07Zm-43.55,13.9a3.7,3.7,0,0,0-.79-3.36,3.62,3.62,0,0,0-3.08-1.49h-11.2a9.21,9.21,0,0,1-5.36-1.67,8.79,8.79,0,0,1-3.36-4.24h24a3.29,3.29,0,0,0,2.34-.92,3,3,0,0,0,1-2.27v0A16.27,16.27,0,0,0,391,76.45a17.19,17.19,0,0,0-12.45-5l-1,0-1,0a17.31,17.31,0,0,0-12.48,5,16.85,16.85,0,0,0,0,24.25,17.31,17.31,0,0,0,12.48,5c.34,0,.68,0,1,0s.68,0,1,0q5.23,0,10.21,0a4.06,4.06,0,0,0,2.44-.89,3.83,3.83,0,0,0,1.35-2.16l0-.07ZM377.57,79.44a9.22,9.22,0,0,1,5.26,1.6,9,9,0,0,1,3.36,4.1H368.92a9.39,9.39,0,0,1,8.65-5.7Zm-22.18-16a5.71,5.71,0,0,1-5.73,5.73,5.67,5.67,0,0,1-5.73-5.73,5.49,5.49,0,0,1,1.67-4,5.62,5.62,0,0,1,4.06-1.66,5.53,5.53,0,0,1,4,1.66,5.43,5.43,0,0,1,1.69,4Zm-5.63,42.27a5.36,5.36,0,0,1-3.94-1.63,5.29,5.29,0,0,1-1.59-3.9V77.77a5.49,5.49,0,0,1,5.52-5.52h.1a5.55,5.55,0,0,1,5.52,5.52v22.42a5.55,5.55,0,0,1-5.52,5.53Zm-10.48-5.53a5.32,5.32,0,0,1-1.63,3.9,5.24,5.24,0,0,1-3.9,1.63h-.1a5.22,5.22,0,0,1-3.89-1.63,5.32,5.32,0,0,1-1.63-3.9V65.13a5.36,5.36,0,0,1,1.63-3.94,5.27,5.27,0,0,1,3.89-1.6h.1a5.3,5.3,0,0,1,3.9,1.6,5.36,5.36,0,0,1,1.63,3.94v35.07Zm-16-36.73a5.71,5.71,0,0,1-5.73,5.73,5.67,5.67,0,0,1-5.73-5.73,5.5,5.5,0,0,1,1.67-4,5.62,5.62,0,0,1,4.06-1.66,5.53,5.53,0,0,1,4,1.66,5.43,5.43,0,0,1,1.69,4Zm-5.63,42.27a5.36,5.36,0,0,1-3.94-1.63,5.29,5.29,0,0,1-1.59-3.9V77.77a5.49,5.49,0,0,1,5.52-5.52h.1a5.55,5.55,0,0,1,5.52,5.52v22.42a5.55,5.55,0,0,1-5.52,5.53Zm-10-17.27q0-8-4-12.92-4.53-5.73-12.31-4.1c-1.82.38-4.47,2.28-8,5.7h-.23q-4.55-7.54-13.39-5.7a7.89,7.89,0,0,0-3.67,1.9q-.36.3-1.28,1.22a7.12,7.12,0,0,1-1.09.95v0a3.42,3.42,0,0,0-3.36-3.39h-3.94A3.42,3.42,0,0,0,253,75.47v25.38a4.88,4.88,0,0,0,4.89,4.89h.74a4.94,4.94,0,0,0,4.92-4.89V85.94a6.07,6.07,0,0,1,1.63-4.2,5.5,5.5,0,0,1,4-1.9,5.85,5.85,0,0,1,6,5.87v15.13a4.94,4.94,0,0,0,4.92,4.89h1a4.88,4.88,0,0,0,4.89-4.89V85.94a6.11,6.11,0,0,1,1.62-4.2,5.5,5.5,0,0,1,4-1.9,5.91,5.91,0,0,1,6.07,5.87v15.13a4.88,4.88,0,0,0,4.89,4.89h.1a4.88,4.88,0,0,0,4.89-4.89V88.46ZM213,88.59a16.94,16.94,0,0,0,4.78,12.11,15.34,15.34,0,0,0,11.53,5c1.29,0,3.14-.79,5.53-2.35a2.76,2.76,0,0,1,1.93-.44,2.94,2.94,0,0,1,1.76.91q1.74,1.88,2.74,1.88h4.48a2.09,2.09,0,0,0,1.53-.65,2,2,0,0,0,.65-1.53V76.45a4,4,0,0,0-4-4H241.2a3.93,3.93,0,0,0-3.94,3.94v0a7.94,7.94,0,0,0-7.91-5,15.33,15.33,0,0,0-11.53,5A17,17,0,0,0,213,88.59Zm10.18-.68a10.88,10.88,0,0,1,.91-4.54,5.7,5.7,0,0,1,2.62-2.92,8.06,8.06,0,0,1,6.78-.34,5.94,5.94,0,0,1,3.73,3.25v8.47c-.07,2.8-1.26,4.61-3.57,5.4a7.21,7.21,0,0,1-3.46.3,6.12,6.12,0,0,1-5-2.67,10.61,10.61,0,0,1-2-6.54v-.42Zm-32.64-4.54h14.48a4.23,4.23,0,0,0,4.2-4.2V79.1a4.08,4.08,0,0,0-1.25-3,4,4,0,0,0-3-1.23H190.59V68.17h14.34a4,4,0,0,0,2.65-.95A4,4,0,0,0,209,64.88l0-.17A4.23,4.23,0,0,0,205,59.59H186.35a7,7,0,0,0-6.92,7v33.64a5.36,5.36,0,0,0,1.63,3.94,5.3,5.3,0,0,0,3.9,1.6h.09a5.28,5.28,0,0,0,3.9-1.6,5.36,5.36,0,0,0,1.63-3.94V83.37Z"/><path class="cls-2" d="M11.61,111.79A60.07,60.07,0,0,1,7,68.22q.38-1.39.82-2.74a45.77,45.77,0,0,0,7.27,4,54.69,54.69,0,0,0,1,28.27c.09,2.16.21,4.32.37,6.48s.34,4.53.73,6.87q-2.76.34-5.53.72ZM81,25.9a60.25,60.25,0,0,1,42,41.24l-1.2.43a55,55,0,0,0-94.4-22.23,9.41,9.41,0,0,0-8.05,12l-.22.45q-3.52-1.15-6.92-2.64A60.31,60.31,0,0,1,81,25.9Z"/><path class="cls-2" d="M47.87,108.52A51.13,51.13,0,0,1,39,94.68q0-1.1.08-2.2a46.64,46.64,0,0,0,10.39,16l-1.63.08ZM36.27,62.06a51.31,51.31,0,0,1,95.45-11.21A9.1,9.1,0,0,0,125,55.47a46.81,46.81,0,0,0-87.29,7l-1.44-.43Z"/><path class="cls-2" d="M15.78,85.7A64.11,64.11,0,0,1,12,68q1.88,1,3.87,1.81c-.12,5.3-.15,10.61-.11,15.91ZM12.42,55.24a63.72,63.72,0,0,1,125.88-2.73A9,9,0,0,0,133,50.77l-.67,0A58.14,58.14,0,0,0,22.42,47.45a9.41,9.41,0,0,0-2.87,10.4v.07a74.7,74.7,0,0,1-7.11-2.68Z"/><path class="cls-2" d="M32.29,45.1A64.21,64.21,0,0,1,148.21,59.25c-1.82.75-3.6,1.5-5.4,2.22a58.57,58.57,0,0,0-107-17.71c-.67,1.09-1.29,2.19-1.88,3.3a9.39,9.39,0,0,0-2.08-1.13l.49-.82Zm118.3,24.61a64,64,0,0,1-2.36,28.37,96.39,96.39,0,0,1-4.14-19.19q.22-2.81.16-5.62a38.79,38.79,0,0,0,6.34-3.56Z"/><path class="cls-2" d="M53.79,108.26A38.79,38.79,0,0,1,41.72,81.1c0-1.26,0-2.5.08-3.74l1.76.34.09,0a35.55,35.55,0,0,0,11.11,30.5l-1,0Zm-9.15-43a38.93,38.93,0,0,1,73.37,4,40.77,40.77,0,0,0-5,3A35.51,35.51,0,0,0,47,66.52q-1.18-.68-2.38-1.27Zm74.9,15.22a38.81,38.81,0,0,1-12.25,28l-2.73-.12c.06-.6.11-1.2.15-1.77a35.39,35.39,0,0,0,9.67-24.3,21.36,21.36,0,0,1,5.16-1.76Z"/><path class="cls-2" d="M28.41,48.5a6.19,6.19,0,1,0,6.19,6.19,6.19,6.19,0,0,0-6.19-6.19ZM78.66,111q7.24,0,14.21.16c-1.12-4.44-1-17.27-.86-23.32-3.42.78-4.73,1.55-9.08,5-.42.33-.65.36-1.23-.09-4.81-3.77-5.78-5.56-9.54-6.93A58.7,58.7,0,0,0,76.55,102,34.25,34.25,0,0,1,72,103a45.44,45.44,0,0,1-.89,8.06q3.72,0,7.52,0Zm16.17.2,4.16.12c-1.1-3.46-1.31-12.17-2.1-12.17s-1,8.52-2.06,12.05Zm6,.18c7.62.27,14.89.67,21.7,1.19q3.35.26,6.55.55a64.64,64.64,0,0,1-1.11-8.86,45.21,45.21,0,0,1-6.6-1.49c2.54-6.53,5.78-20.27,5.73-27.29-3.93,1.3-11.41,1.82-15.38,4.65a40.38,40.38,0,0,1-9.93,5.67c.17,6.22.26,21.07-1,25.58Zm31.24,2,3.92.41a53,53,0,0,1-1-9.11q-1,0-2,0a49.67,49.67,0,0,1-.86,8.71Zm6.54.71c7,.83,13.2,1.79,18.47,2.87a.33.33,0,0,1-.09.66c-11.3-.85-23.83-1.51-37.24-2C106.79,115.24,93,115,78.66,115s-28.13.24-41.06.67c-13.41.45-25.94,1.12-37.24,2A.33.33,0,0,1,.29,117c5.85-1.2,12.87-2.26,20.81-3.14C18.67,107,18.83,79,19.15,67.64c-6.24-2.36-12.21-5.7-16.83-11.52-1.12-1.4-2.62-4,1.22-1.79a79.45,79.45,0,0,0,24.9,9.17c13.6,2.7,18.13,6.12,24.12,10.81,1.35,1.06,2.93,1.49,4.89,2.29,4.46,1.81,6.72,2.77,8.84,2.87,5.33.25,11,3.8,15.74,11.41.14.23.27.44.37.63l.21-.36c4.3-6.85,11.76-8.22,14.62-8.36a21.91,21.91,0,0,0,7.82-2,30,30,0,0,0,5.66-2.93c5-3.85,9.36-7.49,22.43-10.09,7.94-1.58,13.42-4.55,20.35-7.2,3.77-1.44,4.13-1.27,1.11,1.63a38.28,38.28,0,0,1-14.27,9.21c.27,9.8,2.56,22.31,6.2,31.34a39.18,39.18,0,0,1-6.63,1.54,52.36,52.36,0,0,1-1.32,9.81Zm-114.74-.56q3.36-.35,6.91-.65c-1.92-5.93-1.77-21.42-3-21.42-1.44,0-1.79,16.48-3.91,22.07Zm10.23-.92.74-.06c8.52-.65,17.76-1.12,27.5-1.37a46.89,46.89,0,0,1-.93-8.28A39.93,39.93,0,0,1,57,102c2.56-5.7,3.37-10.75,4.22-16.58,0-1,0-1.86.06-2.63-3-1.14-6.56-3.94-9.73-5.92-3.67-2.3-11.85-2.7-15.27-4.24-.09,13.6-.41,33.08-2.17,40Zm30.28-1.47,4.63-.09a51,51,0,0,1-1.22-7.74q-1.08,0-2.15,0a49.65,49.65,0,0,1-1.25,7.84Zm1.92-40.61a3.9,3.9,0,1,1-3.9,3.9,3.9,3.9,0,0,1,3.9-3.9Zm31,4.22a3.51,3.51,0,1,0,3.51,3.51,3.51,3.51,0,0,0-3.51-3.51ZM133,54a5.88,5.88,0,1,1-5.88,5.88A5.88,5.88,0,0,1,133,54Z"/></g></g></svg>