<svg xmlns="http://www.w3.org/2000/svg" viewBox="0 0 225.84 168.88"><defs><style>.cls-1{fill:#388ee5;}.cls-1,.cls-2,.cls-3,.cls-4,.cls-5,.cls-6{fill-rule:evenodd;}.cls-2{fill:#01a055;}.cls-3{fill:#f776a4;}.cls-4{fill:#8e62ba;}.cls-5{fill:#ff9a02;}.cls-6{fill:#4b5a73;}</style></defs><title>logo-img-col</title><g id="Layer_2" data-name="Layer 2"><g id="Layer_1-2" data-name="Layer 1"><path class="cls-1" d="M16.67,160.47A86.23,86.23,0,0,1,10,97.93q.54-2,1.17-3.93a65.73,65.73,0,0,0,10.44,5.69A78.51,78.51,0,0,0,23,140.28c.13,3.1.3,6.21.53,9.3.22,2.9.49,6.5,1,9.86q-4,.48-7.93,1Zm99.6-123.3A86.49,86.49,0,0,1,176.6,96.38l-1.72.62A79,79,0,0,0,39.38,65.09,13.51,13.51,0,0,0,27.82,82.31L27.5,83q-5.06-1.65-9.94-3.78a86.58,86.58,0,0,1,98.71-42Z"/><path class="cls-2" d="M68.72,155.79A73.4,73.4,0,0,1,56,135.92q.06-1.58.12-3.16a67,67,0,0,0,14.92,22.92l-2.34.11ZM52.07,89.1a73.65,73.65,0,0,1,137-16.1,13.06,13.06,0,0,0-9.65,6.63A67.2,67.2,0,0,0,54.13,89.72l-2.06-.62Z"/><path class="cls-3" d="M22.65,123a92,92,0,0,1-5.41-25.44q2.7,1.41,5.56,2.6c-.17,7.6-.22,15.23-.15,22.84ZM17.83,79.29a91.48,91.48,0,0,1,180.71-3.92,13,13,0,0,0-7.67-2.5q-.48,0-1,0a83.47,83.47,0,0,0-157.74-4.8A13.51,13.51,0,0,0,28.06,83l0,.09a107.27,107.27,0,0,1-10.21-3.84Z"/><path class="cls-4" d="M46.36,64.75A92.17,92.17,0,0,1,212.76,85c-2.61,1.08-5.17,2.16-7.76,3.18A84.07,84.07,0,0,0,51.34,62.8c-1,1.56-1.85,3.14-2.7,4.74a13.46,13.46,0,0,0-3-1.62c.23-.39.46-.79.7-1.18Zm169.83,35.33a91.87,91.87,0,0,1-3.39,40.73,138.35,138.35,0,0,1-5.94-27.54q.31-4,.23-8.07a55.66,55.66,0,0,0,9.1-5.12Z"/><path class="cls-5" d="M77.22,155.41a55.68,55.68,0,0,1-17.32-39c0-1.81,0-3.6.12-5.36l2.53.48.13,0a51,51,0,0,0,15.94,43.78l-1.4.05ZM64.08,93.67A55.88,55.88,0,0,1,169.4,99.38a58.51,58.51,0,0,0-7.24,4.29A51,51,0,0,0,67.5,95.49q-1.7-1-3.41-1.82ZM171.6,115.52A55.72,55.72,0,0,1,154,155.64l-3.91-.17c.08-.86.15-1.72.21-2.55A50.79,50.79,0,0,0,164.2,118a30.68,30.68,0,0,1,7.4-2.53Z"/><path class="cls-6" d="M40.78,69.63a8.89,8.89,0,1,0,8.89,8.89,8.89,8.89,0,0,0-8.89-8.89Zm72.15,89.7q10.39,0,20.39.22c-1.61-6.38-1.48-24.79-1.24-33.48-4.91,1.13-6.79,2.23-13,7.11-.61.47-.94.52-1.77-.13-6.9-5.41-8.29-8-13.69-10,1.17,7.93,2.88,16,6.31,23.34a49.15,49.15,0,0,1-6.48,1.37,65.25,65.25,0,0,1-1.27,11.57q5.34-.06,10.79-.06Zm23.21.29,6,.17c-1.57-5-1.88-17.48-3-17.48s-1.43,12.23-3,17.31Zm8.59.26c10.93.38,21.37,1,31.15,1.71q4.81.37,9.41.79a92.86,92.86,0,0,1-1.6-12.72,64.82,64.82,0,0,1-9.48-2.14c3.65-9.38,8.3-29.1,8.23-39.17C176.78,110.21,166,111,160.35,115c-4.81,3.43-8.52,6-14.25,8.14.25,8.93.38,30.24-1.38,36.72Zm44.84,2.91q2.87.29,5.63.59c-.81-3.06-1.19-8.05-1.46-13.08q-1.46,0-2.93,0a71.35,71.35,0,0,1-1.24,12.5Zm9.39,1c10,1.19,19,2.58,26.51,4.13a.48.48,0,0,1-.13.95c-16.22-1.21-34.21-2.17-53.46-2.82-18.57-.63-38.38-1-58.95-1s-40.37.34-58.95,1c-19.25.65-37.24,1.61-53.46,2.82a.48.48,0,0,1-.1-1c8.39-1.72,18.47-3.24,29.87-4.51-3.48-9.84-3.25-50-2.8-66.32-9-3.39-17.53-8.19-24.16-16.53-1.6-2-3.77-5.77,1.75-2.57A114.05,114.05,0,0,0,40.82,91.16c19.52,3.88,26,8.79,34.63,15.52,1.94,1.52,4.2,2.14,7,3.28,6.4,2.59,9.64,4,12.69,4.12,7.65.36,15.74,5.46,22.6,16.38.2.33.38.63.53.9l.31-.51c6.18-9.83,16.88-11.81,21-12,2.71-.13,5.6-.58,11.23-2.86a43.14,43.14,0,0,0,8.12-4.2c7.24-5.53,13.44-10.75,32.2-14.48C202.54,95,210.4,90.77,220.35,87c5.41-2.07,5.93-1.82,1.59,2.33-7,6.68-12.36,10.15-20.49,13.22.39,14.07,3.68,32,8.9,45a56.23,56.23,0,0,1-9.52,2.21c-.42,6.12-1,11.19-1.89,14.08ZM34.23,163q4.82-.5,9.92-.93c-2.75-8.51-2.54-30.75-4.3-30.75-2.06,0-2.57,23.66-5.62,31.68Zm14.68-1.32,1.06-.08c12.23-.93,25.5-1.61,39.47-2a67.31,67.31,0,0,1-1.33-11.88,57.33,57.33,0,0,1-6.33-1.3c3.67-8.18,4.84-15.42,6.06-23.8,0-1.4.05-2.67.08-3.78-4.32-1.64-9.41-5.65-14-8.5-5.27-3.3-17-3.88-21.93-6.09-.13,19.53-.6,47.49-3.12,57.4Zm43.46-2.12,6.65-.12a73.21,73.21,0,0,1-1.76-11.11q-1.54,0-3.09,0c-.45,4-1,8.61-1.8,11.26Zm2.76-58.3a5.6,5.6,0,1,1-5.61,5.6,5.6,5.6,0,0,1,5.61-5.6Zm44.49,6.06a5,5,0,1,0,5,5,5,5,0,0,0-5-5Zm51.25-29.83a8.44,8.44,0,1,1-8.44,8.44,8.44,8.44,0,0,1,8.44-8.44Z"/></g></g></svg>